<?xml version="1.0" encoding="iso-8859-1"?>
<!-- Generator: Adobe Illustrator 18.0.0, SVG Export Plug-In . SVG Version: 6.00 Build 0)  -->
<!DOCTYPE svg PUBLIC "-//W3C//DTD SVG 1.1//EN" "http://www.w3.org/Graphics/SVG/1.1/DTD/svg11.dtd">
<svg xmlns="http://www.w3.org/2000/svg" xmlns:xlink="http://www.w3.org/1999/xlink" version="1.1" id="Capa_1" x="0px" y="0px" viewBox="0 0 314.876 314.876" style="enable-background:new 0 0 314.876 314.876;" xml:space="preserve" width="512px" height="512px">
<g>
	<rect x="185.045" y="227.497" width="84.5" height="46" fill="#1D7FDB"/>
	<circle cx="73.524" cy="26.466" r="26.466" fill="#1D7FDB"/>
	<path d="M116.596,296.331h176.912v-91.667H116.596V296.331z M175.045,222.497c0-2.762,2.238-5,5-5h94.5c2.762,0,5,2.238,5,5v56c0,2.762-2.238,5-5,5h-94.5c-2.762,0-5-2.238-5-5V222.497z" fill="#1D7FDB"/>	
	<path d="M301.497,166.664H146.75l0.074,14.741c0.024,4.945-1.561,9.528-4.257,13.259h158.931c2.009,0,3.638-1.629,3.638-3.638v-20.724C305.135,168.293,303.507,166.664,301.497,166.664z M192.409,185.664c-2.761,0-5-2.239-5-5c0-2.761,2.239-5,5-5c2.761,0,5,2.239,5,5C197.409,183.426,195.17,185.664,192.409,185.664z M210.409,185.664c-2.761,0-5-2.239-5-5c0-2.761,2.239-5,5-5c2.762,0,5,2.239,5,5C215.409,183.426,213.17,185.664,210.409,185.664z" fill="#1D7FDB"/>	
	<path d="M124.386,194.017c0.001,0,0.001,0,0.002,0c0.015,0,0.031,0,0.046,0c6.903-0.035,12.472-5.659,12.437-12.563l-0.461-91.833c-0.083-16.229-13.353-29.433-29.581-29.433h-9.481c-2.856,16.326-2.245,12.837-5.056,28.906l14.08,56.664V89.76c0-1.376,1.113-2.492,2.489-2.495c1.375-0.004,2.495,1.106,2.502,2.483c0.079,15.718,0.461,91.832,0.461,91.832c0.035,6.883,5.624,12.438,12.499,12.438C124.343,194.017,124.366,194.017,124.386,194.017z" fill="#1D7FDB"/>	
	<path d="M64.486,86.686h18.076c1.619-9.253,2.757-15.758,4.635-26.498c-4.309,0-25.151,0-27.346,0C61.475,69.474,62.755,76.788,64.486,86.686z" fill="#1D7FDB"/>
	<path d="M40.168,207.853v92.023c0,8.284,6.716,15,15,15c8.355,0,15-6.842,15-15v-92.023H40.168z" fill="#1D7FDB"/>
	<path d="M76.644,207.853h-0.048v92.023c0,8.284,6.716,15,15,15c0.009,0,0.017-0.001,0.025-0.001c0.008,0,0.015,0.001,0.023,0.001c8.284,0,15-6.716,15-15v-92.023H76.644z" fill="#1D7FDB"/>
	<path d="M40.201,145.918l14.494-57.174c-2.753-15.737-3.747-21.42-4.995-28.556h-9.917c-16.228,0-29.498,13.203-29.581,29.434l-0.461,91.832c-0.034,6.903,5.534,12.527,12.437,12.563c0.022,0,0.042,0,0.064,0c6.865,0,12.464-5.597,12.499-12.438c0,0,0.338-67.333,0.461-91.831c0.007-1.355,1.109-2.448,2.463-2.444c1.354,0.004,2.449,1.103,2.449,2.457v56.306c0.017,0,0.031-0.005,0.048-0.005c0.014,0,0.026-0.004,0.04-0.004V145.918z" fill="#1D7FDB"/>
	<path d="M181.496,118.822h78.328c0.429,0,0.816-0.258,0.98-0.655c0.164-0.396,0.073-0.853-0.23-1.156c-5.59-5.59-13.172-8.731-21.078-8.731h-5.361c1.101-1.224,1.777-2.837,1.777-4.613c0-3.814-3.092-6.906-6.906-6.906h-16.689c-3.814,0-6.906,3.092-6.906,6.906c0,1.776,0.676,3.39,1.777,4.613h-5.365c-7.905,0-15.485,3.14-21.076,8.731c-0.303,0.303-0.394,0.759-0.23,1.156C180.68,118.563,181.067,118.822,181.496,118.822z" fill="#1D7FDB"/>
	<path d="M171.885,139.7h7.834c2.537,9.228,10.981,16.009,21.014,16.009h39.853c10.033,0,18.478-6.781,21.015-16.009h7.833c2.762,0,5-2.238,5-5c0-2.762-2.238-5-5-5h-97.55c-2.762,0-5,2.238-5,5C166.885,137.462,169.123,139.7,171.885,139.7z" fill="#1D7FDB"/>
</g>
</svg>
